<svg xmlns="http://www.w3.org/2000/svg" width="788.908" height="465.897" viewBox="0 0 788.908 465.897"><defs><style>.a{fill:#cfb9b9;}.a,.b,.g,.h{stroke:#707070;}.b{fill:#fff;}.c{fill:#a0616a;}.d{fill:#2013ff;}.e{fill:#2f2e41;}.f{fill:#3f3d56;}.h{fill:#191919;}.i{stroke:none;}.j{fill:none;}</style></defs><g transform="translate(-206 -128)"><g transform="translate(206 128)"><g class="a"><rect class="i" width="616" height="387" rx="32"/><rect class="j" x="0.5" y="0.5" width="615" height="386" rx="31.5"/></g><g class="b" transform="translate(0 52)"><rect class="i" width="616" height="335"/><rect class="j" x="0.5" y="0.5" width="615" height="334"/></g><g transform="translate(573.142 152.942)"><path class="c" d="M875.491,520.424a8.3,8.3,0,0,1,4.045-12.072l-1.174-29.482,13.126,7.925-.9,26.782a8.348,8.348,0,0,1-15.1,6.847Z" transform="translate(-744.548 -337.501)"/><path class="d" d="M886.954,487.111l-11.669,1.864a3.715,3.715,0,0,1-4.269-3.18l-4.937-37.18-24.395-33.384a11.212,11.212,0,0,1,3.016-16.062h0a11.212,11.212,0,0,1,15.485,3.41L885.1,441.566,890.058,483a3.758,3.758,0,0,1,.011.8,3.7,3.7,0,0,1-3.115,3.314Z" transform="translate(-738.492 -323.3)"/><path class="c" d="M623.571,451.62H613.448l-4.815-39.045h14.94Z" transform="translate(-515.339 -149.809)"/><path class="e" d="M603.113,456.36h19.522v12.292H590.821A12.292,12.292,0,0,1,603.113,456.36Z" transform="translate(-512.234 -157.442)"/><path class="c" d="M670.9,432.72l-7.563,6.728-28.193-27.8,9.806-8.1Z" transform="translate(-519.96 -148.236)"/><path class="e" d="M12.292,0H31.814V12.292H0A12.292,12.292,0,0,1,12.292,0Z" transform="translate(126.873 302.027) rotate(-41.654)"/><path class="c" d="M723.669,402.731a8.3,8.3,0,0,1,10.176,7.651l28.344,8.2-11.666,9.95L725.4,419.22a8.348,8.348,0,0,1-1.727-16.489Z" transform="translate(-717.163 -324.191)"/><circle class="c" cx="20.28" cy="20.28" r="20.28" transform="translate(74.595 9.686)"/><path class="e" d="M845.223,636.624l-14.09-1.127a3.713,3.713,0,0,1-3.417-3.581l-3.932-118.761a3.707,3.707,0,0,1,3.2-3.8l28.09-3.92a3.715,3.715,0,0,1,4.176,4.3L848.5,572.7a2.911,2.911,0,0,0-.041.524l.775,59.652a3.717,3.717,0,0,1-3.718,3.765C845.419,636.637,845.321,636.633,845.223,636.624Z" transform="translate(-735.748 -342.125)"/><path class="e" d="M861.185,622.3l-48.4-53.866a3.719,3.719,0,0,1-.931-2.877l6.113-57.307a3.71,3.71,0,0,1,3.942-3.313l29.7,1.98a3.716,3.716,0,0,1,3.273,4.9l-17.8,52.652a2.879,2.879,0,0,0,.658,2.932l41.113,42.608a3.716,3.716,0,0,1-.784,5.779l-12.236,7.23a3.724,3.724,0,0,1-4.654-.715Z" transform="translate(-733.665 -342.043)"/><path class="d" d="M825.1,382.273s12.385-10.734,18.165-4.954c0,0,26.835,16.927,15.275,63.165,0,0,9.908,44.587,5.78,46.238s-45.826,7.844-49.128,2.89S810.239,408.7,825.1,382.273Z" transform="translate(-733.861 -319.501)"/><path class="d" d="M740.292,425.833l1.917-11.66a3.715,3.715,0,0,1,4.365-3.046l36.836,7.06,39.381-12.6a11.212,11.212,0,0,1,14.287,7.935h0a11.212,11.212,0,0,1-8.127,13.615l-44.861,11.324-40.879-8.383a3.761,3.761,0,0,1-.759-.241A3.7,3.7,0,0,1,740.292,425.833Z" transform="translate(-721.186 -324.634)"/><path class="e" d="M836.515,354.072c1.853-4.289,3.422-10-.133-13.034-2.062-1.759-5.031-1.763-7.733-1.981-7.611-.617-15.445-4.118-19.165-10.786s-1.643-16.583,5.375-19.592c4.731-2.028,10.154-.646,15.105.758l14.867,4.216c4.417,1.253,9.056,2.634,12.236,5.946,5.072,5.282,4.693,14.211.664,20.327s-10.094,12.493-17.04,14.815Z" transform="translate(-732.939 -307.656)"/><path class="f" d="M934.076,686.331H729.306a.826.826,0,0,1,0-1.651h204.77a.826.826,0,0,1,0,1.651Z" transform="translate(-719.136 -373.377)"/></g><g class="g" transform="translate(38 15)"><ellipse class="i" cx="13.5" cy="13" rx="13.5" ry="13"/><ellipse class="j" cx="13.5" cy="13" rx="13" ry="12.5"/></g><g class="g" transform="translate(80 15)"><ellipse class="i" cx="13.5" cy="13" rx="13.5" ry="13"/><ellipse class="j" cx="13.5" cy="13" rx="13" ry="12.5"/></g><g class="h" transform="translate(122 15)"><ellipse class="i" cx="13.5" cy="13" rx="13.5" ry="13"/><ellipse class="j" cx="13.5" cy="13" rx="13" ry="12.5"/></g></g></g></svg>