<svg xmlns="http://www.w3.org/2000/svg" xmlns:xlink="http://www.w3.org/1999/xlink" width="160" height="120" viewBox="0 0 279 116"><defs><clipPath id="b"><rect width="279" height="116"/></clipPath></defs><g id="a" clip-path="url(#b)"><rect width="279" height="116" fill="#F8C9F0"/><g transform="translate(47 -481)"><g transform="translate(-27 429)"><g transform="translate(0 68.981)"><g fill="rgba(191,229,233,0.44)" stroke="#707070" stroke-width="1"><rect width="74" height="65" rx="8" stroke="none"/><rect x="0.5" y="0.5" width="73" height="64" rx="7.5" fill="none"/></g><g transform="translate(36 24)" fill="#888dfc" stroke="#4f2ebf" stroke-width="3"><ellipse cx="6.5" cy="5.5" rx="6.5" ry="5.5" stroke="none"/><ellipse cx="6.5" cy="5.5" rx="5" ry="4" fill="none"/></g><g transform="translate(21 4)" fill="#888dfc" stroke="#4f2ebf" stroke-width="3"><ellipse cx="6.5" cy="6" rx="6.5" ry="6" stroke="none"/><ellipse cx="6.5" cy="6" rx="5" ry="4.5" fill="none"/></g><g transform="translate(5 24)" fill="#888dfc" stroke="#4f2ebf" stroke-width="3"><ellipse cx="6.5" cy="5.5" rx="6.5" ry="5.5" stroke="none"/><ellipse cx="6.5" cy="5.5" rx="5" ry="4" fill="none"/></g><g transform="translate(21 47)" fill="#888dfc" stroke="#4f2ebf" stroke-width="3"><ellipse cx="6.5" cy="5.5" rx="6.5" ry="5.5" stroke="none"/><ellipse cx="6.5" cy="5.5" rx="5" ry="4" fill="none"/></g><g transform="translate(55 47)" fill="#888dfc" stroke="#4f2ebf" stroke-width="3"><ellipse cx="5" cy="5.5" rx="5" ry="5.5" stroke="none"/><ellipse cx="5" cy="5.5" rx="3.5" ry="4" fill="none"/></g><path d="M5.917,0,0,8.135" transform="translate(15.901 15.455)" fill="none" stroke="#cc8180" stroke-width="4"/><line x2="6.656" y2="8.135" transform="translate(32.171 15.455)" fill="none" stroke="#cb6464" stroke-width="4" opacity="0.8"/><line x1="7.29" y2="11.629" transform="translate(31.624 34.685)" fill="none" stroke="#d58383" stroke-width="4"/><line x2="9.025" y2="11.108" transform="translate(48.113 34.68)" fill="none" stroke="#d58383" stroke-width="4"/><text transform="translate(45 68)" fill="#707070" font-size="1" font-family="Sylfaen"><tspan x="0" y="0" xml:space="preserve">            </tspan></text></g><text transform="translate(91 136)" fill="#1767c2" font-size="55" font-family="SamanthaUprightSWASHW90-Bd"><tspan x="0" y="0">Visualizer</tspan></text><text transform="translate(88 97)" fill="#090909" font-size="56" font-family="SamanthaUprightSWASHW90-Bd"><tspan x="0" y="0">Algorithm</tspan></text></g></g></g></svg>